<?xml version="1.0" encoding="iso-8859-1"?>
<!-- Generator: Adobe Illustrator 19.0.0, SVG Export Plug-In . SVG Version: 6.00 Build 0)  -->
<svg version="1.1" id="Layer_1" xmlns="http://www.w3.org/2000/svg" xmlns:xlink="http://www.w3.org/1999/xlink" x="0px" y="0px"
	 viewBox="0 0 512 512" style="enable-background:new 0 0 512 512;" xml:space="preserve">
<rect x="97.304" y="90.027" style="fill:#2C2C30;" width="314.469" height="314.994"/>
<path style="fill:#212124;" d="M97.298,90.028v314.994h6.707V263.308c0-83.207,67.695-150.902,150.902-150.902
	S405.81,180.1,405.81,263.308v141.715h5.961V90.028L97.298,90.028L97.298,90.028z"/>
<path style="fill:#AEACB3;" d="M391.411,491.173c0,3.266-2.648,5.914-5.914,5.914H123.403c-3.266,0-5.914-2.648-5.914-5.914v-45.148
	H391.41v45.148H391.411z"/>
<g>
	<path style="fill:#555558;" d="M254.45,446.024v51.062h131.047c3.266,0,5.914-2.648,5.914-5.914v-45.148L254.45,446.024
		L254.45,446.024z"/>
	<rect x="117.491" y="446.022" style="fill:#555558;" width="273.826" height="16.005"/>
</g>
<path style="fill:#FF9900;" d="M325.424,258.114c-0.441-1.386-1.81-2.259-3.252-2.076s-2.55,1.37-2.631,2.822
	c-0.577,10.307-2.632,24.463-8.497,40.115c-10.465-30.929-31.841-63.97-68.778-86.009c-1.247-0.744-2.8-0.75-4.05-0.009
	c-1.25,0.741-1.993,2.107-1.936,3.559c1.392,35.817-61.295,78.484-61.295,128.702c0,39.818,32.28,72.098,72.098,72.098
	c8.509,0,16.669-1.484,24.247-4.192c-0.01,0.006-0.019,0.011-0.028,0.018c0,0,43.047-6.632,60.932-49.853
	C350.119,320.07,325.424,258.114,325.424,258.114z"/>
<path style="fill:#FF4D00;" d="M484.055,396.08H405.81V244.06c0-83.207-67.695-150.902-150.902-150.902
	S104.005,160.853,104.005,244.06v152.02H25.76V244.06c0-126.352,102.796-229.148,229.148-229.148S484.055,117.708,484.055,244.06
	V396.08z"/>
<g>
	<path style="fill:#FFDC35;" d="M270.181,307.669c-0.442-1.386-1.81-2.259-3.252-2.076c-1.443,0.183-2.55,1.37-2.631,2.822
		c-1.236,22.103-9.259,61.905-47.122,96.234l35.68,28.542C252.855,433.191,292.485,377.688,270.181,307.669z"/>
	<path style="fill:#FFDC35;" d="M225.422,134.217c1.882-0.93,4.157-0.423,5.466,1.217c1.309,1.64,1.301,3.974-0.025,5.601
		c-9.582,11.77-18.75,30.374-14.245,56.169c0.357,2.041-0.739,4.059-2.644,4.872s-4.122,0.212-5.35-1.456
		C196.023,183.484,184.214,154.579,225.422,134.217z"/>
</g>
<path style="fill:#A9825A;" d="M512,441.228c0,3.266-2.648,5.914-5.914,5.914H5.914c-3.266,0-5.914-2.648-5.914-5.914v-39.233
	c0-3.266,2.648-5.914,5.914-5.914h500.17c3.266,0,5.914,2.648,5.914,5.914v39.233H512z"/>
<path style="fill:#C61D39;" d="M254.907,14.913c-0.153,0-0.304,0.006-0.457,0.006v78.246c0.153,0,0.304-0.006,0.457-0.006
	c83.207,0,150.902,67.695,150.902,150.902v152.02h78.246V244.06C484.055,117.708,381.259,14.913,254.907,14.913z"/>
<path style="fill:#7E6142;" d="M506.086,396.08H256.03v51.063h250.055c3.266,0,5.914-2.648,5.914-5.914v-39.233
	C512,398.728,509.352,396.08,506.086,396.08z"/>
<g>
</g>
<g>
</g>
<g>
</g>
<g>
</g>
<g>
</g>
<g>
</g>
<g>
</g>
<g>
</g>
<g>
</g>
<g>
</g>
<g>
</g>
<g>
</g>
<g>
</g>
<g>
</g>
<g>
</g>
</svg>
